<?xml version="1.0" encoding="utf-8"?>
<!-- Generator: Adobe Illustrator 23.0.0, SVG Export Plug-In . SVG Version: 6.00 Build 0)  -->
<svg version="1.1" id="Layer_1" xmlns="http://www.w3.org/2000/svg" xmlns:xlink="http://www.w3.org/1999/xlink" x="0px" y="0px"
	 viewBox="0 0 1635.9 1355.1" style="enable-background:new 0 0 1635.9 1355.1;" xml:space="preserve">
<style type="text/css">
	.st0{fill:#FFFFFF;}
</style>
<g>
	<g>
		<g>
			<path class="st0" d="M51.1,1325.3c0,9.2,0,15.5-4,20.7c-3.7,5.2-10.3,7.8-21.5,7.8s-17.8-2.6-21.5-7.8c-4-5.2-4-11.5-4-20.7
				v-134.2c0-17.8,6.6-24.4,24.4-24.4h64.1c9.2,0,15.5,0,20.7,3.7c5.2,3.4,7.8,9.5,7.8,19.8c0,10.3-2.6,16.4-7.8,19.8
				c-5.2,3.7-11.5,3.7-20.7,3.7H51.1v25.3h29.6c9.2,0,15.5,0,20.7,3.4c5.2,3.7,7.8,9.5,7.8,19.5s-2.6,15.8-7.8,19.5
				c-5.2,3.4-11.5,3.4-20.7,3.4H51.1L51.1,1325.3L51.1,1325.3z"/>
		</g>
		<g>
			<path class="st0" d="M326,1315.2H262l-5.2,14.4c-6,16.7-13.2,24.1-31.3,24.1c-16.4,0-22.4-6-22.4-15.2c0-3.4,0.9-7.2,3.2-12.3
				l58.6-139c6-14.7,12.9-22.4,31.3-22.4c18.7,0,24.7,8,30.5,22.4l56.6,139.3c1.7,4.9,2.6,8.3,2.6,11.5c0,10.3-8,15.8-24.4,15.8
				c-17.2,0-23.3-6-29.9-23.8L326,1315.2z M276.3,1275.6h35.6l-17.8-48.3L276.3,1275.6z"/>
		</g>
		<g>
			<path class="st0" d="M586,1249.1c14.9,10.1,27.6,24.4,27.6,48c0,36.8-31.3,58-69.5,58c-13.2,0-26.4-2.6-39.1-8.3
				c-9.8-4.6-18.1-10.6-18.1-22.1c0-10.9,7.5-25.3,20.7-25.3c12.1,0,21.3,12.1,36.8,12.1c10.3,0,17-5.2,17-12.4
				c0-8.9-10.1-14.4-22.4-21c-21.3-11.2-50.3-24.7-50.3-58.3c0-34.8,30.2-56.9,67.2-56.9c25.8,0,54.6,10.9,54.6,29.9
				c0,10.9-9.5,24.1-21.8,24.1c-10.6,0-21-10.1-33.9-10.1c-8.6,0-13.8,4.6-13.8,10.1C540.9,1228.8,565.3,1235.1,586,1249.1z"/>
		</g>
		<g>
			<path class="st0" d="M817.2,1325.3c0,9.2,0,15.5-4,20.7c-4,5.2-10.6,7.8-22.1,7.8s-18.1-2.6-22.1-7.8c-4-5.2-4-11.5-4-20.7
				v-111.5h-24.7c-9.2,0-15.5,0-20.7-3.7c-5.2-3.4-7.8-9.5-7.8-19.8c0-10.3,2.6-16.4,7.8-19.8c5.2-3.7,11.5-3.7,20.7-3.7h101.7
				c9.2,0,15.5,0,20.7,3.7c5.2,3.4,7.8,9.5,7.8,19.8c0,10.3-2.6,16.4-7.8,19.8c-5.2,3.7-11.5,3.7-20.7,3.7h-24.7L817.2,1325.3
				L817.2,1325.3z"/>
		</g>
		<g>
			<path class="st0" d="M1076,1305.2c9.2,0,15.5,0,20.7,3.7c5.2,3.4,7.8,9.5,7.8,19.8c0,10.3-2.6,16.4-7.8,19.8
				c-5.2,3.7-11.5,3.7-20.7,3.7H1008c-17.8,0-24.4-6.6-24.4-24.4v-134.7c0-9.2,0-15.5,4-20.7c4-5.2,10.6-7.8,22.1-7.8
				s18.1,2.6,22.1,7.8c4,5.2,4,11.5,4,20.7v112L1076,1305.2L1076,1305.2z"/>
		</g>
		<g>
			<path class="st0" d="M1322.8,1315.2h-64.1l-5.2,14.4c-6,16.7-13.2,24.1-31.3,24.1c-16.4,0-22.4-6-22.4-15.2
				c0-3.4,0.9-7.2,3.2-12.3l58.6-139c6-14.7,12.9-22.4,31.3-22.4c18.7,0,24.7,8,30.4,22.4l56.6,139.3c1.7,4.9,2.6,8.3,2.6,11.5
				c0,10.3-8,15.8-24.4,15.8c-17.2,0-23.3-6-29.9-23.8L1322.8,1315.2z M1273.1,1275.6h35.6l-17.8-48.3L1273.1,1275.6z"/>
		</g>
		<g>
			<path class="st0" d="M1604.3,1346.2c-12.1,5.2-29,8-53.4,8c-13.5,0-27-0.9-36.8-3.7c-17.8-5.2-19-15.8-19-28.1v-127.5
				c0-17.2,6-24.1,23.8-27.9c9.5-2,21.8-2.9,33.3-2.9c52.6,0,74.4,17.8,74.4,47.4c0,35.1-31.3,40.8-31.3,40.8s40.5,4.6,40.5,46.8
				C1635.9,1323.6,1622.4,1338.5,1604.3,1346.2z M1543.4,1237.7h4.3c5.2,0,14.7,0,21-4.9c3.7-2.9,5.8-7.2,5.8-12.6
				c0-12.9-11.5-15.5-21.8-15.5c-4.9,0-9.2,0.6-9.2,0.6L1543.4,1237.7L1543.4,1237.7z M1543.4,1314.4c0,0,4.3,0.6,10.3,0.6
				c13.8,0,29.9-3.2,29.9-19.8c0-8-3.7-14.1-10.3-17.5c-7.8-4-16.7-4-25.3-4h-4.6V1314.4z"/>
		</g>
	</g>
	<g>
		<g>
			<path class="st0" d="M753.2,898h-3.1c-56.8,0-103-46.2-103-103V486.1h163.2V103c0-56.8,46.2-103,103-103h231.1
				c56.8,0,103,46.2,103,103s-46.2,103-103,103H856.2V326h202.7c56.8,0,103,46.2,103,103s-46.2,103-103,103H856.2v263
				C856.2,851.8,810,898,753.2,898z M693,532v263c0,31.5,25.6,57.1,57.1,57.1h3.1c31.5,0,57.1-25.6,57.1-57.1V532H693z M856.2,486.1
				h202.7c31.5,0,57.1-25.6,57.1-57.1c0-31.5-25.6-57.1-57.1-57.1H856.2V486.1z M856.2,160.1h288.2c31.5,0,57.1-25.6,57.1-57.1
				c0-31.5-25.6-57.1-57.1-57.1H913.3c-31.5,0-57.1,25.6-57.1,57.1V160.1z"/>
		</g>
	</g>
</g>
</svg>
