<?xml version="1.0" encoding="utf-8"?>
<!-- Generator: Adobe Illustrator 24.1.2, SVG Export Plug-In . SVG Version: 6.00 Build 0)  -->
<svg version="1.1" id="Layer_1" xmlns="http://www.w3.org/2000/svg" xmlns:xlink="http://www.w3.org/1999/xlink" x="0px" y="0px"
	 viewBox="0 0 6041.7 1450.2" style="enable-background:new 0 0 6041.7 1450.2;" xml:space="preserve">
<style type="text/css">
	.st0{fill:#FFFFFF;}
</style>
<g>
	<g>
		<path class="st0" d="M1712.8,932.5c0,25,0,42.2-10.9,56.3c-10.2,14.1-28.1,21.1-58.6,21.1s-48.5-7-58.6-21.1
			c-10.9-14.1-10.9-31.3-10.9-56.3v-365c0-48.5,18-66.4,66.4-66.4h174.3c25,0,42.2,0,56.3,10.2c14.1,9.4,21.1,25.8,21.1,53.9
			c0,28.1-7,44.5-21.1,53.9c-14.1,10.2-31.3,10.2-56.3,10.2h-101.6v68.8h80.5c25,0,42.2,0,56.3,9.4c14.1,10.2,21.1,25.8,21.1,53.1
			s-7,43-21.1,53.1c-14.1,9.4-31.3,9.4-56.3,9.4h-80.5V932.5z"/>
		<path class="st0" d="M2460.7,905.2h-174.3l-14.1,39.1c-16.4,45.3-35.9,65.6-85.2,65.6c-44.5,0-61-16.4-61-41.4
			c0-9.4,2.3-19.5,8.6-33.6l159.4-378.2c16.4-39.9,35.2-61,85.2-61c50.8,0,67.2,21.9,82.8,61l154,379c4.7,13.3,7,22.7,7,31.3
			c0,28.1-21.9,43-66.4,43c-46.9,0-63.3-16.4-81.3-64.9L2460.7,905.2z M2325.5,797.3h96.9L2374,666L2325.5,797.3z"/>
		<path class="st0" d="M3168,725.4c40.6,27.3,75,66.4,75,130.5c0,100-85.2,157.9-189.1,157.9c-35.9,0-71.9-7-106.3-22.7
			c-26.6-12.5-49.2-28.9-49.2-60.2c0-29.7,20.3-68.8,56.3-68.8c32.8,0,57.8,32.8,100,32.8c28.1,0,46.1-14.1,46.1-33.6
			c0-24.2-27.3-39.1-61-57C2982,773.9,2903,737.1,2903,645.7c0-94.6,82.1-154.7,182.9-154.7c70.3,0,148.5,29.7,148.5,81.3
			c0,29.7-25.8,65.6-59.4,65.6c-28.9,0-57.1-27.3-92.2-27.3c-23.4,0-37.5,12.5-37.5,27.3C3045.3,669.9,3111.7,687.1,3168,725.4z"/>
		<path class="st0" d="M3797.1,932.5c0,25,0,42.2-10.9,56.3c-10.9,14.1-28.9,21.1-60.2,21.1c-31.3,0-49.2-7-60.2-21.1
			s-10.9-31.3-10.9-56.3V629.3h-67.2c-25,0-42.2,0-56.3-10.2c-14.1-9.4-21.1-25.8-21.1-53.9c0-28.1,7-44.5,21.1-53.9
			c14.1-10.2,31.3-10.2,56.3-10.2h276.7c25,0,42.2,0,56.3,10.2c14.1,9.4,21.1,25.8,21.1,53.9c0,28.1-7,44.5-21.1,53.9
			c-14.1,10.2-31.3,10.2-56.3,10.2H3797L3797.1,932.5L3797.1,932.5z"/>
		<path class="st0" d="M4501.2,877.8c25,0,42.2,0,56.3,10.2c14.1,9.4,21.1,25.8,21.1,53.9c0,28.1-7,44.5-21.1,53.9
			c-14.1,10.2-31.3,10.2-56.3,10.2H4316c-48.5,0-66.4-18-66.4-66.4V573c0-25,0-42.2,10.9-56.3c10.9-14.1,28.9-21.1,60.2-21.1
			s49.2,7,60.2,21.1s10.9,31.3,10.9,56.3v304.8L4501.2,877.8L4501.2,877.8z"/>
		<path class="st0" d="M5172.5,905.2h-174.3l-14.1,39.1c-16.4,45.3-35.9,65.6-85.2,65.6c-44.5,0-61-16.4-61-41.4
			c0-9.4,2.3-19.5,8.6-33.6L5006,556.6c16.4-39.9,35.2-61,85.2-61c50.8,0,67.2,21.9,82.8,61l154,379c4.7,13.3,7,22.7,7,31.3
			c0,28.1-21.9,43-66.4,43c-46.9,0-63.3-16.4-81.3-64.9L5172.5,905.2z M5037.3,797.3h96.9L5085.7,666L5037.3,797.3z"/>
		<path class="st0" d="M5938.3,989.6c-32.8,14.1-78.9,21.9-145.4,21.9c-36.7,0-73.5-2.3-100-10.2c-48.5-14.1-51.6-43-51.6-76.6v-347
			c0-46.9,16.4-65.7,64.9-75.8c25.8-5.5,59.4-7.8,90.7-7.8c143,0,202.4,48.5,202.4,128.9c0,95.3-85.2,111-85.2,111
			s110.2,12.5,110.2,127.4C6024.3,927.8,5987.6,968.5,5938.3,989.6z M5772.7,694.2h11.7c14.1,0,39.9,0,57.1-13.3
			c10.2-7.8,15.6-19.5,15.6-34.4c0-35.2-31.3-42.2-59.4-42.2c-13.3,0-25,1.6-25,1.6V694.2z M5772.7,902.8c0,0,11.7,1.6,28.1,1.6
			c37.5,0,81.3-8.6,81.3-53.9c0-21.9-10.2-38.3-28.1-47.7c-21.1-10.9-45.3-10.9-68.8-10.9h-12.5V902.8z"/>
	</g>
	<g>
		<path class="st0" d="M184,1450.2h-4.6c-89.3,0-162-72.7-162-162V819.8h242.9V258.2c0-89.3,72.7-162,162-162h344.1
			c89.3,0,162,72.7,162,162s-72.7,162-162,162H346v161.2h293.1c89.3,0,162,72.7,162,162s-72.7,162-162,162H346v382.8
			C346,1377.6,273.3,1450.2,184,1450.2z M103.1,905.4v382.8c0,42.1,34.3,76.4,76.4,76.4h4.6c42.1,0,76.4-34.3,76.4-76.4V905.4H103.1
			z M346,819.8h293.1c42.1,0,76.4-34.3,76.4-76.4c0-42.1-34.3-76.4-76.4-76.4H346V819.8z M346,334.6h420.4
			c42.1,0,76.4-34.3,76.4-76.4s-34.3-76.4-76.4-76.4H422.3c-42.1,0-76.4,34.3-76.4,76.4V334.6z"/>
	</g>
</g>
</svg>
