<svg id="Layer_1" data-name="Layer 1" xmlns="http://www.w3.org/2000/svg" viewBox="0 0 127 128"><defs><style>.cls-1{fill:#fff;}</style></defs><path class="cls-1" d="M96.49,32.65c-1.21-42.87-64.78-42.84-66,0-40,2.84-39.86,63.16.17,65.8,3.7,38.73,62,38.71,65.64,0C136.37,95.8,136.49,35.48,96.49,32.65ZM38.69,98a33.08,33.08,0,0,0,21.8-14.26,17.89,17.89,0,0,0,6,0A33.08,33.08,0,0,0,88.31,98C85.12,126.84,41.87,126.83,38.69,98ZM63.5,8a25,25,0,0,1,25,25A33,33,0,0,0,67.14,46.4a19,19,0,0,0-7.28,0A33,33,0,0,0,38.5,33,25,25,0,0,1,63.5,8Zm7.4,48.88c7.43,6.3,2.33,19.44-7.4,19.12-9.73.32-14.83-12.82-7.4-19.12l.41.12c0-.12-.09-.24-.14-.36a11.07,11.07,0,0,1,14.26,0c0,.12-.1.24-.14.36ZM31.38,40.6a25,25,0,0,1,21,9.11c-10.51,7.16-10.23,24.21.49,31C39.39,99.5,7.3,88.92,8,65.54A25,25,0,0,1,31.38,40.6ZM96.17,90.44a25.08,25.08,0,0,1-22-9.69c10.72-6.83,11-23.88.49-31C108.7,16.25,143,81.22,96.17,90.44Z"/></svg>