<?xml version="1.0" standalone="no"?>
<!DOCTYPE svg PUBLIC "-//W3C//DTD SVG 20010904//EN"
 "http://www.w3.org/TR/2001/REC-SVG-20010904/DTD/svg10.dtd">
<svg version="1.0" xmlns="http://www.w3.org/2000/svg"
 width="700.000000pt" height="700.000000pt" viewBox="0 0 700.000000 700.000000"
 preserveAspectRatio="xMidYMid meet">
<metadata>
Created by potrace 1.11, written by Peter Selinger 2001-2013
</metadata>
<g transform="translate(0.000000,700.000000) scale(0.100000,-0.100000)"
fill="#000000" stroke="none">
<path d="M3230 6643 c-208 -21 -351 -86 -482 -219 -116 -118 -188 -272 -203
-434 -2 -19 -4 -646 -4 -1392 l-1 -1358 -570 0 -570 0 -1 -67 c0 -38 0 -538 0
-1113 0 -1179 -3 -1130 76 -1295 69 -145 180 -258 322 -329 288 -143 628 -90
853 134 117 116 192 275 206 437 4 41 7 487 8 991 l1 917 685 2 c376 1 716 3
755 4 383 12 695 333 695 715 0 152 -54 316 -142 433 -121 161 -285 256 -493
286 -22 3 -369 6 -771 6 l-732 0 0 420 0 419 52 0 c649 0 2085 8 2096 11 8 3
31 9 50 13 191 44 388 209 474 398 77 168 84 384 19 557 -68 180 -230 343
-408 410 -33 13 -69 26 -81 31 -11 4 -52 11 -90 16 -61 6 -1681 13 -1744 7z
m1655 -324 c173 -6 305 -100 367 -260 83 -218 -51 -469 -279 -523 -48 -11
-247 -13 -1084 -12 l-1024 1 0 230 c0 165 4 244 14 278 31 109 136 222 241
261 25 9 84 20 130 24 75 6 1477 7 1635 1z m-508 -2295 c78 -20 131 -51 186
-106 194 -196 133 -521 -121 -641 l-67 -32 -756 -3 -756 -3 -1 393 c0 216 2
396 5 401 2 4 331 7 731 6 589 0 737 -3 779 -15z m-1837 -2053 c0 -1049 2
-1001 -65 -1106 -52 -82 -131 -141 -230 -172 -47 -15 -182 -13 -238 4 -111 33
-198 110 -251 223 l-31 65 -3 967 -3 967 411 0 410 0 0 -948z"/>
</g>
</svg>
