<svg id="Layer_2" data-name="Layer 2" xmlns="http://www.w3.org/2000/svg" viewBox="0 0 443 340"><defs><style>.cls-1{fill:none;stroke:#fff;stroke-miterlimit:10;stroke-width:2px;}</style></defs><path class="cls-1" d="M80.52,216.75A200,200,0,0,0,172,192.32a295.4,295.4,0,0,1-78.89,15c-8.89.45-18.53.75-25.47,6.33,9.9,5.27,22,2.27,32.75-.84l111.08-32c-32.15,9.8-64.47,19.67-94.6,34.57-21.11,10.45-41.8,23.56-65.22,26,38.75-14.29,78.45-29.12,109.59-56.25a90.8,90.8,0,0,0-56.91,40.24c7,3.24,15.16-.75,21.88-4.64l40.49-23.48c-12.79-.87-25.49,2.74-37.36,7.58-8.5,3.46-16.9,7.68-23.41,14.15C88.37,236.41,89,264.52,90.87,289.22c.25,3.37.8,7.25,3.69,9,4.18,2.55,9.27-1.4,12.34-5.22,15.53-19.37,24.23-43.18,32.67-66.52C162.43,163.26,185.35,99.79,199.21,34L160.4,103.23c-10.5,18.73-21,37.54-28.57,57.64-6.73,18-11,36.75-16.51,55.12-3.71,12.32-8,24.57-9.51,37.35s.15,26.43,7.47,37c16.05-6.92,28.05-20.87,37.19-35.77s16-31.11,25.21-45.94c22.66-36.34,58.3-62.29,93.06-87.3-13.93,15.44-30.24,28.53-46.73,41.21q-35.07,27-71.66,51.87c-27,18.37-54.68,36-78.68,58.1A816.08,816.08,0,0,1,298.74,154.17a403,403,0,0,1-151.5,91.77c3.32-9.44,11.2-16.42,18.78-23,20.25-17.47,41.26-35.37,66.77-43.4,30.4-9.57,63.37-4,95-7.85A297.17,297.17,0,0,1,275,264.8c-1.6,1.91-3.67,4-6.13,3.64s-4-3.23-3.77-5.76,1.78-4.72,3.29-6.76A204.14,204.14,0,0,1,335.31,198c2.07,3.15-.79,7.17-3.64,9.63-27.54,23.77-67.53,24.37-103.91,23.74a237.75,237.75,0,0,1,115.07,28.67,525.65,525.65,0,0,1-96.51-8c-2.6-.46-5.69-1.36-6.4-3.9,32.24-3.6,65,1.94,95.86,11.84s60.21,24.07,89.41,38.19c-77.9-45.72-171.71-57.3-251.35-99.89,52.18-5.7,106.51,13.17,143.93,50-16.78-4-33.3-9.09-49.62-14.73-54.67-18.92-109.23-45-167-42.56a303.83,303.83,0,0,0,45.1,6.7,264.28,264.28,0,0,0,27-96.94c-20.06,28.13-33.37,60.4-46.31,92.44-12.66,31.31-25.36,64.82-19.14,98,12.59-6.8,20.77-19.94,24.73-33.68S136.72,229.31,137,215l2.13-134c-7.32,28.42-20.9,54.77-31.17,82.26s-17.26,57.5-10.7,86.1"/></svg>