<svg id="Layer_2" data-name="Layer 2" xmlns="http://www.w3.org/2000/svg" viewBox="0 0 577 427"><defs><style>.cls-1{fill:none;stroke:#fff;stroke-miterlimit:10;stroke-width:2px;}</style></defs><path class="cls-1" d="M85,350c.82-5.78-8.18-14.78-11.13-10.06-3,6.28,6,38.28,9.17,35.12,4.35-5.25,6.78-32.84,5.93-19-1.15,8.62,5,23.53,8.94,23.37,6.91-.16,17.31-32.38,26-48.57,3.26-6.09,11-13,15.7-7.87,1.34,1.47,1.77,3.52,2.14,5.47,1.39,7.11,2.3,14.71,4.56,21.59,3-3,6.87-5,9.92-8a61.79,61.79,0,0,0,10-12.58,60.7,60.7,0,0,0,8.87-29.78,15.42,15.42,0,0,0-1.53,30c5.39,1.54,11.15,0,16.47-1.73a150.54,150.54,0,0,0,50.47-28.76c9.91-8.55,19.36-21.68,14.28-33.73-5-11.83-20.65-14.42-33.4-13-31.83,3.64-60.26,21.26-86,40.36S85,333.19,55.69,346.1c52.28-13.59,101.2-37.49,151.68-56.73,70.42-26.85,144.93-45.1,209.42-84.1,46.27-28,88.14-66.91,141.07-78-5.93,11.84-18.41,18.76-30.45,24.28-27.18,12.45-55.82,21.46-83.26,33.33-48.47,21-92.7,50.63-140.47,73.13-29,13.67-59.18,24.66-88.72,37.09-14.85,6.25-29.56,12.86-43.82,20.36-7.11,3.73-14.11,7.68-20.94,11.91-4.71,2.92-12.79,6.4-15.51,11.42,8,.31,18.16-4.92,25.38-8.19,9.14-4.13,17.89-9.09,26.57-14.1,31.8-18.32,63.29-37.44,97.05-51.82s70.24-24,106.89-22.07c10.46.54,22.33,2.92,27.64,12,5.6,9.54,1.15,21.66-4,31.43A241.38,241.38,0,0,1,317.57,384c-4.8,2.63-10.17,5.17-15.53,4.09-4.32-.87-7.83-3.94-10.89-7.11a97.36,97.36,0,0,1-27-63.47l1.46,59.44c.19,7.83-.14,16.86-6.26,21.76-47.49-89-77-186.67-98.15-285.34-5.61-26.1-10.67-52.8-8-79.36a489.26,489.26,0,0,1,41.62,269c-.75,5.71-1.69,11.63-5,16.36s-9.61,7.85-14.93,5.65c-4.56-1.88-6.93-6.83-8.89-11.36q-23.37-54.11-46.75-108.2c-3.3-7.62-7.64-16.16-15.71-18.08-4.71-1.13-9.62.36-14.11,2.16C72.58,196.28,57,208.85,51.39,226.14s1.54,39.18,18.38,46.08c7.75,3.18,16.41,3,24.78,2.73,112.55-3.7,225.61-16,333.24-49.11-55,10.67-111.39,21.91-158.6,52"/></svg>