<svg id="Layer_2" data-name="Layer 2" xmlns="http://www.w3.org/2000/svg" viewBox="0 0 534 216"><defs><style>.cls-1{fill:none;stroke:#fff;stroke-miterlimit:10;stroke-width:2px;}</style></defs><path class="cls-1" d="M467.66,141.47l9.54,16.72c1.22,2.14,2.58,4.4,4.82,5.43s5.54,0,5.86-2.45c.4-3.13-3.74-4.61-6.89-4.76-18.48-.92-36.69,4-54.82,7.71C312.1,187.38,191.75,168.46,75.33,168c-64,3-64.95,16.05-64,18,.61,1.24,82,1,162-11,50.12-6.53,102-19,216-29,16-3-49,58-40.39,40.93C370.31,141.52,393.33,105,394.33,67c1-34,0-52,3-52,2,0,1.16,9.65,1.28,17.63.54,35.95-1.81,68.42-1.28,104.37,1,12,20.7-36.66,35-66,.77-1.57,9-19,20-18,7.21,2.71,6,11,6,22-2,44-27,66-20.11,65.22q34.5-4.42,69.24-6.58c14.87-.64-13.94-3-22.73-2.81-16.37.35-32.5,3.66-23.38,4.57l31.21,3.83"/></svg>