<?xml version="1.0" encoding="utf-8"?>
<!-- Generator: Adobe Illustrator 24.1.2, SVG Export Plug-In . SVG Version: 6.00 Build 0)  -->
<svg version="1.1" id="Layer_1" xmlns="http://www.w3.org/2000/svg" xmlns:xlink="http://www.w3.org/1999/xlink" x="0px" y="0px"
	 viewBox="0 0 368.5 368.5" style="enable-background:new 0 0 368.5 368.5;" xml:space="preserve">
<style type="text/css">
	.st0{fill:#FFFFFF;}
</style>
<path class="st0" d="M161.3,16L161.3,16c0.2,0.2,0.2,0.2,0,0.2c-50.2,17.5-66.1,78.5-66.1,78.5V95h0.2
	c90.9-119,175.4-80.6,175.4-80.6c0.2,0,0.2,0.2,0.2,0.2l0,0c0,0.2-0.2,0.2-0.2,0.2c-1.6-0.2-26.7-2.1-35,21l125.9,140.7
	c0,3.9-1.6,7.8-4.1,10.8c-1.4-1.8-6.7-4.4-10.4-5.5c-4.8-1.6-9.4-2.3-9.4-6c0-1.8,1.4-3.5,3.2-3.5h0.2c0.7,0,1.2,0.2,1.6,0.5l0,0
	l0,0c-0.7-1.2-2.1-1.8-3.5-1.8c-3.5,0-6.4,2.8-6.7,6.4c-0.2,3.2,1.6,6.2,4.4,7.8c2.8,1.8,8.1,4.4,8.1,8.3c0,2.3-1.4,4.6-3.7,5.3
	c-7.6,3.5-15.7,6.2-23.9,7.8c-0.5-2.1-0.5-8.5-12-20c-22.1-22.3-101.5-3.7-101.5-58.2c0-25.3,23.9-35.2,37.8-34.5
	c11.7,0.7,16.6,4.1,17.5,4.8h0.2v-0.2l0,0c0,0-8.7-19.1-33.4-19.1c-27.4,0-65.8,20-65.8,63.8c0,90.7,127.1,85,127.1,161.6
	c0,29.9-17.5,45.1-39.6,53c6.7-5.3,10.6-13.4,10.6-21.6c0-64.9-150.1-50.9-150.1-122c0-27.6,23.7-37.8,29.7-37.8
	c0.2,0,0.2,0,0.2-0.2l0,0c0,0,0-0.2-0.2-0.2c-3.7-1.8-7.6-2.8-11.7-2.5c-18.9,0-54.8,16.8-54.8,60.1c0,51.3,66.8,83.6,66.8,108.4
	c0,6.7-2.5,13.1-6.7,18.2c-54.8-17.5-125-72.5-125-170.6C6.9,70.6,117.6,16,161.3,16"/>
</svg>
